control3min_grf.mot
version=1
nRows=22
nColumns 19
inDegrees=yes
endheader
time	1_ground_force_vx	1_ground_force_vy	1_ground_force_vz	1_ground_force_px	1_ground_force_py	1_ground_force_pz	1_ground_torque_x	1_ground_torque_y	1_ground_torque_z	2_ground_force_vx	2_ground_force_vy	2_ground_force_vz	2_ground_force_px	2_ground_force_py	2_ground_force_pz	2_ground_torque_x	2_ground_torque_y	2_ground_torque_z
            3.751500	            2.957593	          137.076813	          -16.753593	           -0.202908	            0.005898	           -0.328272	            0.009994	            0.463209	           -0.056614	           -6.511899	           90.584504	           -1.316580	           -0.173311	            0.005836	           -0.691675	           -0.020837	            0.289857	           -0.004213
            3.752000	            3.004823	          135.092130	          -16.349506	           -0.202241	            0.005893	           -0.327117	            0.011973	            0.538265	           -0.065143	           -6.598932	           88.742515	           -1.276183	           -0.172301	            0.005838	           -0.691065	           -0.021508	            0.289245	           -0.004160
            3.752500	            2.730990	          132.747247	          -16.037880	           -0.203063	            0.005896	           -0.327866	            0.011004	            0.534881	           -0.064622	           -6.781803	           87.453812	           -1.562271	           -0.172904	            0.005838	           -0.691589	           -0.025950	            0.334639	           -0.005978
            3.753000	            2.732086	          129.862013	          -15.820968	           -0.202009	            0.005896	           -0.327682	            0.010052	            0.477782	           -0.058208	           -6.870809	           86.164093	           -1.472975	           -0.173778	            0.005844	           -0.694236	           -0.023915	            0.299907	           -0.005127
            3.753500	            2.595245	          127.337874	          -15.739737	           -0.201310	            0.005894	           -0.327328	            0.009153	            0.449097	           -0.055511	           -6.768675	           83.772185	           -1.950837	           -0.171653	            0.005843	           -0.691773	           -0.019570	            0.242207	           -0.005640
            3.754000	            2.458941	          124.993018	          -15.428452	           -0.201573	            0.005895	           -0.327533	            0.007660	            0.389377	           -0.048063	           -6.903887	           82.298323	           -1.909106	           -0.170785	            0.005847	           -0.692018	           -0.023519	            0.280361	           -0.006504
            3.754500	            2.459447	          124.091099	          -15.294749	           -0.202647	            0.005891	           -0.326637	            0.008830	            0.445521	           -0.054912	           -6.987720	           79.536589	           -2.153562	           -0.169353	            0.005838	           -0.688041	           -0.023243	            0.264562	           -0.007163
            3.755000	            2.598137	          120.845361	          -15.079725	           -0.202256	            0.005894	           -0.327387	            0.009256	            0.430499	           -0.053720	           -7.077453	           78.431529	           -2.204393	           -0.169391	            0.005839	           -0.688485	           -0.031398	            0.347945	           -0.009779
            3.755500	            2.462031	          117.418910	          -14.773078	           -0.201215	            0.005894	           -0.327301	            0.009464	            0.451369	           -0.056789	           -7.074794	           77.694935	           -2.207021	           -0.169070	            0.005852	           -0.691616	           -0.024510	            0.269170	           -0.007646
            3.756000	            2.187269	          115.796466	          -14.779352	           -0.202069	            0.005899	           -0.328490	            0.007399	            0.391692	           -0.049992	           -7.248943	           74.011627	           -2.313939	           -0.165885	            0.005843	           -0.685922	           -0.032404	            0.330848	           -0.010344
            3.756500	            2.188281	          113.992630	          -14.511946	           -0.201047	            0.005895	           -0.327403	            0.008053	            0.419525	           -0.053408	           -7.342142	           73.828487	           -2.689981	           -0.167481	            0.005849	           -0.689384	           -0.033595	            0.337810	           -0.012308
            3.757000	            2.096583	          112.190545	          -14.657016	           -0.200782	            0.005895	           -0.327457	            0.006869	            0.367581	           -0.048022	           -7.101164	           71.987180	           -2.508939	           -0.165332	            0.005856	           -0.689024	           -0.028980	            0.293784	           -0.010239
            3.757500	            2.098164	          110.385726	          -14.160331	           -0.202157	            0.005891	           -0.326571	            0.006590	            0.346713	           -0.044477	           -7.423817	           70.512977	           -2.560984	           -0.165763	            0.005850	           -0.687984	           -0.037501	            0.356191	           -0.012937
            3.758000	            2.099715	          107.499705	          -13.759995	           -0.201001	            0.005897	           -0.327980	            0.006398	            0.327585	           -0.041931	           -7.606688	           69.224258	           -2.847072	           -0.164245	            0.005861	           -0.689327	           -0.036405	            0.331301	           -0.013626
            3.758500	            1.916576	          104.976344	          -13.862073	           -0.200626	            0.005895	           -0.327446	            0.006241	            0.341859	           -0.045142	           -7.738659	           66.830332	           -2.996339	           -0.162376	            0.005857	           -0.686385	           -0.034891	            0.301319	           -0.013510
            3.759000	            1.871128	          102.813147	          -13.871235	           -0.201211	            0.005893	           -0.326955	            0.006465	            0.355236	           -0.047927	           -7.644356	           66.647017	           -3.137820	           -0.164456	            0.005867	           -0.691285	           -0.031747	            0.276785	           -0.013031
            3.759500	            1.780080	          101.190148	          -13.740396	           -0.201097	            0.005890	           -0.326381	            0.006327	            0.359656	           -0.048837	           -7.636525	           64.438408	           -3.474201	           -0.162405	            0.005862	           -0.687852	           -0.031155	            0.262890	           -0.014174
            3.760000	            1.735641	           98.484581	          -13.385030	           -0.200477	            0.005897	           -0.327996	            0.005736	            0.325461	           -0.044233	           -7.864752	           62.779893	           -3.386159	           -0.162291	            0.005862	           -0.687774	           -0.042792	            0.341582	           -0.018424
            3.760500	            1.507327	           95.419431	          -13.260033	           -0.199734	            0.005899	           -0.328318	            0.004942	            0.312832	           -0.043473	           -8.045628	           60.938737	           -3.674218	           -0.161096	            0.005858	           -0.685505	           -0.041599	            0.315078	           -0.018997
            3.761000	            1.462431	           93.976117	          -12.990968	           -0.200644	            0.005895	           -0.327517	            0.004843	            0.311212	           -0.043021	           -7.904332	           60.754427	           -3.487223	           -0.160333	            0.005874	           -0.688949	           -0.033751	            0.259417	           -0.014890
            3.761500	            1.508651	           92.533804	          -12.951409	           -0.201150	            0.005889	           -0.325985	            0.004772	            0.292708	           -0.040969	           -8.084441	           58.728286	           -3.541299	           -0.159375	            0.005862	           -0.684773	           -0.044309	            0.321878	           -0.019409
            3.762000	            1.051005	           90.730272	          -12.774577	           -0.200733	            0.005892	           -0.326703	            0.003349	            0.289112	           -0.040706	           -8.079871	           57.439917	           -3.733611	           -0.157696	            0.005877	           -0.687373	           -0.047522	            0.337834	           -0.021959
